<svg id="svg" version="1.1" xmlns="http://www.w3.org/2000/svg" xmlns:xlink="http://www.w3.org/1999/xlink" width="400" height="249.33333333333334" viewBox="0, 0, 400,249.33333333333334"><g id="svgg"><path id="path0" d="M66.894 43.454 L 66.958 73.192 90.898 73.192 L 114.838 73.192 114.901 43.454 L 114.965 13.716 90.898 13.716 L 66.831 13.716 66.894 43.454 M22.062 85.595 C 21.996 85.768,21.971 103.473,22.006 124.938 L 22.070 163.965 30.549 163.965 L 39.027 163.965 39.027 124.688 L 39.027 85.411 30.604 85.346 C 24.000 85.294,22.156 85.348,22.062 85.595 M72.792 108.300 C 68.595 110.799,64.976 112.997,64.750 113.185 C 64.097 113.729,64.122 154.101,64.776 154.661 C 65.016 154.866,68.612 157.016,72.767 159.437 L 80.322 163.840 91.159 163.840 L 101.995 163.840 101.995 156.861 L 101.995 149.881 91.708 149.816 L 81.421 149.751 81.355 143.955 L 81.288 138.160 91.579 138.095 L 101.870 138.030 101.870 133.042 L 101.870 128.055 91.584 127.990 L 81.297 127.925 81.297 122.070 L 81.297 116.215 91.584 116.150 L 101.870 116.085 101.870 109.975 L 101.870 103.865 91.147 103.811 L 80.424 103.758 72.792 108.300 M109.339 104.058 C 109.272 104.232,109.248 107.009,109.285 110.230 L 109.352 116.085 119.576 116.209 L 129.800 116.334 129.800 122.070 L 129.800 127.805 119.576 127.930 L 109.352 128.055 109.352 133.042 L 109.352 138.030 120.200 138.030 L 131.047 138.030 138.903 133.412 L 146.758 128.794 146.758 120.974 L 146.758 113.154 138.811 108.447 L 130.863 103.741 120.162 103.741 C 111.738 103.741,109.435 103.808,109.339 104.058 M181.152 106.390 C 178.694 107.850,175.084 109.997,173.130 111.160 L 169.576 113.274 169.576 133.916 L 169.576 154.558 177.520 159.202 L 185.464 163.846 196.286 163.781 L 207.107 163.716 207.107 156.858 L 207.107 150.000 196.758 149.868 C 191.066 149.796,186.379 149.712,186.342 149.681 C 186.305 149.651,186.305 147.073,186.342 143.953 L 186.409 138.279 196.620 138.214 C 204.409 138.164,206.878 138.076,207.028 137.840 C 207.136 137.670,207.224 135.511,207.224 133.042 C 207.224 130.574,207.136 128.415,207.028 128.245 C 206.878 128.009,204.409 127.920,196.620 127.871 L 186.409 127.805 186.409 122.070 L 186.409 116.334 196.758 116.209 L 207.107 116.085 207.107 109.975 L 207.107 103.865 196.364 103.800 L 185.620 103.735 181.152 106.390 M214.464 109.972 L 214.464 116.204 224.751 116.269 L 235.037 116.334 235.037 122.070 L 235.037 127.805 224.813 127.930 L 214.589 128.055 214.589 133.042 L 214.589 138.030 225.173 138.095 L 235.758 138.160 239.388 136.074 C 241.384 134.927,245.037 132.805,247.506 131.358 L 251.995 128.728 252.061 121.002 L 252.127 113.277 244.065 108.509 L 236.004 103.741 225.234 103.741 L 214.464 103.741 214.464 109.972 M277.368 133.853 L 277.431 163.716 285.661 163.716 L 293.890 163.716 293.954 140.298 C 294.000 123.500,294.096 116.786,294.296 116.545 C 294.521 116.274,296.549 116.209,304.893 116.209 L 315.212 116.209 315.212 110.073 C 315.212 104.700,315.165 103.955,314.835 104.081 C 314.628 104.161,311.794 104.968,308.538 105.874 C 305.282 106.780,300.838 108.025,298.661 108.639 C 293.724 110.032,294.015 110.151,294.015 106.741 L 294.015 103.990 285.660 103.990 L 277.305 103.990 277.368 133.853 M347.662 107.766 L 339.090 111.483 336.690 110.494 C 335.369 109.950,331.484 108.321,328.055 106.874 C 324.626 105.426,321.680 104.241,321.509 104.241 C 321.180 104.239,321.022 162.595,321.348 163.446 C 321.480 163.789,338.395 164.113,338.713 163.778 C 338.745 163.744,338.829 153.055,338.900 140.025 L 339.027 116.334 349.905 116.269 C 358.819 116.216,360.833 116.265,361.063 116.543 C 361.266 116.787,361.362 123.392,361.408 140.298 L 361.471 163.716 369.701 163.716 L 377.930 163.716 377.994 138.680 C 378.039 120.663,377.980 113.552,377.781 113.312 C 377.630 113.130,374.163 110.957,370.078 108.485 L 362.651 103.990 359.443 104.019 L 356.234 104.048 347.662 107.766 M129.374 147.569 L 129.302 149.751 119.264 149.816 L 109.227 149.881 109.227 156.861 L 109.227 163.840 120.137 163.840 L 131.047 163.839 138.903 159.256 L 146.758 154.673 146.826 150.030 L 146.894 145.387 138.170 145.387 L 129.446 145.387 129.374 147.569 M234.663 147.332 C 234.663 150.086,235.526 149.875,224.264 149.875 L 214.464 149.875 214.464 156.858 L 214.464 163.840 225.334 163.840 L 236.204 163.840 243.725 159.439 C 247.862 157.019,251.443 154.916,251.683 154.766 C 252.073 154.523,252.120 154.007,252.120 149.940 L 252.120 145.387 243.392 145.387 L 234.663 145.387 234.663 147.332 M67.000 176.225 C 66.908 176.317,66.833 189.728,66.833 206.027 L 66.833 235.661 127.807 235.661 L 188.781 235.661 188.717 213.404 L 188.653 191.147 151.933 191.084 C 131.736 191.049,115.188 190.993,115.159 190.959 C 115.130 190.925,115.046 187.587,114.972 183.541 L 114.838 176.185 91.003 176.121 C 77.894 176.086,67.093 176.133,67.000 176.225 M209.892 191.189 C 209.800 191.280,209.726 201.324,209.726 213.508 L 209.726 235.661 271.446 235.661 L 333.167 235.661 333.167 213.342 L 333.167 191.022 271.613 191.022 C 237.758 191.022,209.983 191.097,209.892 191.189 " stroke="none" fill="#ababab" fill-rule="evenodd"></path><path id="path1" d="M0.000 124.688 L 0.000 249.377 200.000 249.377 L 400.000 249.377 400.000 124.688 L 400.000 0.000 200.000 0.000 L 0.000 0.000 0.000 124.688 M115.337 43.392 L 115.337 73.441 90.898 73.441 L 66.459 73.441 66.395 43.641 C 66.359 27.251,66.384 13.700,66.450 13.527 C 66.544 13.279,71.577 13.228,90.953 13.278 L 115.337 13.342 115.337 43.392 M39.401 124.688 L 39.401 164.339 30.549 164.339 L 21.696 164.339 21.696 124.688 L 21.696 85.037 30.549 85.037 L 39.401 85.037 39.401 124.688 M102.244 109.972 L 102.244 116.453 91.958 116.518 L 81.671 116.584 81.671 122.070 L 81.671 127.556 91.958 127.621 L 102.244 127.686 102.244 133.042 L 102.244 138.398 91.958 138.464 L 81.671 138.529 81.604 143.953 L 81.536 149.377 91.579 149.380 C 97.102 149.382,101.763 149.474,101.937 149.585 C 102.182 149.740,102.237 151.394,102.186 157.000 L 102.120 164.214 91.267 164.279 L 80.414 164.344 72.252 159.574 L 64.090 154.803 64.090 133.913 L 64.090 113.022 72.128 108.257 L 80.166 103.491 91.205 103.491 L 102.244 103.491 102.244 109.972 M138.864 108.014 C 143.069 110.502,146.705 112.708,146.945 112.916 C 147.405 113.315,147.635 128.167,147.191 128.826 C 147.090 128.975,143.420 131.191,139.035 133.751 L 131.063 138.404 120.020 138.404 L 108.978 138.404 108.978 133.045 L 108.978 127.686 119.264 127.621 L 129.551 127.556 129.551 122.070 L 129.551 116.584 119.264 116.518 L 108.978 116.453 108.978 109.972 L 108.978 103.491 120.098 103.491 L 131.219 103.491 138.864 108.014 M207.423 109.913 L 207.357 116.334 197.132 116.459 L 186.908 116.584 186.908 122.070 L 186.908 127.556 197.132 127.681 L 207.357 127.805 207.357 133.042 L 207.357 138.279 197.070 138.344 L 186.783 138.410 186.783 143.893 L 186.783 149.377 196.820 149.380 C 202.341 149.382,207.000 149.474,207.173 149.585 C 207.419 149.740,207.474 151.394,207.423 157.000 L 207.357 164.214 196.454 164.279 L 185.552 164.344 178.000 159.940 C 173.847 157.518,170.140 155.320,169.763 155.058 L 169.077 154.580 169.077 133.929 C 169.077 116.213,169.129 113.235,169.438 112.979 C 169.637 112.814,173.256 110.620,177.481 108.102 L 185.162 103.526 196.326 103.509 L 207.490 103.491 207.423 109.913 M244.179 108.117 C 248.478 110.661,252.135 112.926,252.307 113.152 C 252.680 113.643,252.759 127.527,252.394 128.488 C 252.232 128.914,249.954 130.372,244.181 133.743 L 236.191 138.409 225.140 138.344 L 214.090 138.279 214.090 133.042 L 214.090 127.805 224.167 127.740 C 231.100 127.695,234.349 127.589,234.579 127.398 C 235.043 127.013,235.063 117.505,234.601 116.882 C 234.319 116.501,233.331 116.455,224.190 116.397 L 214.090 116.334 214.023 110.229 C 213.986 106.871,214.011 103.982,214.077 103.808 C 214.173 103.559,216.557 103.491,225.281 103.491 L 236.364 103.491 244.179 108.117 M294.362 103.886 C 294.446 104.103,294.514 105.393,294.514 106.754 C 294.514 108.443,294.604 109.227,294.799 109.227 C 294.956 109.227,299.553 107.979,305.016 106.454 C 310.478 104.929,315.119 103.747,315.329 103.828 C 315.722 103.979,315.932 115.344,315.559 116.314 C 315.425 116.665,314.257 116.708,304.962 116.708 L 294.516 116.708 294.453 140.337 L 294.389 163.965 285.723 164.031 L 277.057 164.096 277.057 133.960 C 277.057 117.385,277.132 103.749,277.224 103.658 C 277.627 103.254,294.205 103.475,294.362 103.886 M370.363 108.209 L 378.180 112.927 378.243 138.508 L 378.307 164.090 369.729 164.090 C 362.137 164.090,361.133 164.044,360.999 163.695 C 360.916 163.478,360.848 152.816,360.848 140.002 L 360.848 116.703 350.062 116.768 L 339.277 116.833 339.152 140.399 L 339.027 163.965 329.988 164.031 L 320.948 164.096 320.948 133.918 C 320.948 109.514,321.009 103.741,321.268 103.741 C 321.444 103.741,325.456 105.368,330.183 107.357 C 334.910 109.345,338.893 110.973,339.034 110.973 C 339.175 110.973,343.159 109.300,347.887 107.255 L 356.484 103.538 359.515 103.515 L 362.546 103.491 370.363 108.209 M146.987 145.039 C 147.613 145.279,147.574 154.370,146.945 154.913 C 146.705 155.120,143.013 157.326,138.741 159.817 L 130.974 164.344 120.038 164.279 L 109.102 164.214 109.036 156.920 C 109.000 152.908,109.000 149.601,109.036 149.571 C 109.072 149.540,113.591 149.456,119.077 149.384 L 129.052 149.252 129.120 147.382 C 129.157 146.353,129.238 145.371,129.299 145.200 C 129.417 144.871,146.153 144.719,146.987 145.039 M252.360 145.370 C 252.655 145.920,252.687 153.727,252.397 154.464 C 252.290 154.738,248.797 156.927,244.136 159.641 L 236.061 164.344 225.075 164.279 L 214.090 164.214 214.023 157.107 C 213.963 150.647,213.996 149.972,214.383 149.688 C 214.706 149.452,217.138 149.377,224.487 149.377 L 234.165 149.377 234.165 147.431 C 234.165 146.251,234.282 145.369,234.464 145.187 C 235.049 144.602,252.042 144.776,252.360 145.370 M115.403 183.155 C 115.452 188.549,115.547 190.424,115.777 190.570 C 115.946 190.677,132.497 190.767,152.557 190.769 L 189.030 190.773 188.966 213.404 L 188.903 236.035 127.681 236.035 L 66.459 236.035 66.395 206.234 C 66.359 189.844,66.384 176.293,66.450 176.121 C 66.544 175.872,71.577 175.821,90.953 175.872 L 115.337 175.935 115.403 183.155 M333.541 213.466 L 333.541 236.035 271.571 236.035 L 209.601 236.035 209.537 213.403 L 209.474 190.772 271.507 190.835 L 333.541 190.898 333.541 213.466 " stroke="none" fill="#7cdcfc" fill-rule="evenodd"></path><path id="path2" d="M66.450 13.527 C 66.384 13.700,66.359 27.251,66.395 43.641 L 66.459 73.441 90.898 73.441 L 115.337 73.441 115.337 43.392 L 115.337 13.342 90.953 13.278 C 71.577 13.228,66.544 13.279,66.450 13.527 M114.901 43.454 L 114.838 73.192 90.898 73.192 L 66.958 73.192 66.894 43.454 L 66.831 13.716 90.898 13.716 L 114.965 13.716 114.901 43.454 M21.696 124.688 L 21.696 164.339 30.549 164.339 L 39.401 164.339 39.401 124.688 L 39.401 85.037 30.549 85.037 L 21.696 85.037 21.696 124.688 M39.027 124.688 L 39.027 163.965 30.549 163.965 L 22.070 163.965 22.006 124.938 C 21.971 103.473,21.996 85.768,22.062 85.595 C 22.156 85.348,24.000 85.294,30.604 85.346 L 39.027 85.411 39.027 124.688 M72.128 108.257 L 64.090 113.022 64.090 133.913 L 64.090 154.803 72.252 159.574 L 80.414 164.344 91.267 164.279 L 102.120 164.214 102.186 157.000 C 102.237 151.394,102.182 149.740,101.937 149.585 C 101.763 149.474,97.102 149.382,91.579 149.380 L 81.536 149.377 81.604 143.953 L 81.671 138.529 91.958 138.464 L 102.244 138.398 102.244 133.042 L 102.244 127.686 91.958 127.621 L 81.671 127.556 81.671 122.070 L 81.671 116.584 91.958 116.518 L 102.244 116.453 102.244 109.972 L 102.244 103.491 91.205 103.491 L 80.166 103.491 72.128 108.257 M108.978 109.972 L 108.978 116.453 119.264 116.518 L 129.551 116.584 129.551 122.070 L 129.551 127.556 119.264 127.621 L 108.978 127.686 108.978 133.045 L 108.978 138.404 120.020 138.404 L 131.063 138.404 139.035 133.751 C 143.420 131.191,147.090 128.975,147.191 128.826 C 147.635 128.167,147.405 113.315,146.945 112.916 C 146.705 112.708,143.069 110.502,138.864 108.014 L 131.219 103.491 120.098 103.491 L 108.978 103.491 108.978 109.972 M177.481 108.102 C 173.256 110.620,169.637 112.814,169.438 112.979 C 169.129 113.235,169.077 116.213,169.077 133.929 L 169.077 154.580 169.763 155.058 C 170.140 155.320,173.847 157.518,178.000 159.940 L 185.552 164.344 196.454 164.279 L 207.357 164.214 207.423 157.000 C 207.474 151.394,207.419 149.740,207.173 149.585 C 207.000 149.474,202.341 149.382,196.820 149.380 L 186.783 149.377 186.783 143.893 L 186.783 138.410 197.070 138.344 L 207.357 138.279 207.357 133.042 L 207.357 127.805 197.132 127.681 L 186.908 127.556 186.908 122.070 L 186.908 116.584 197.132 116.459 L 207.357 116.334 207.423 109.913 L 207.490 103.491 196.326 103.509 L 185.162 103.526 177.481 108.102 M214.077 103.808 C 214.011 103.982,213.986 106.871,214.023 110.229 L 214.090 116.334 224.190 116.397 C 233.331 116.455,234.319 116.501,234.601 116.882 C 235.063 117.505,235.043 127.013,234.579 127.398 C 234.349 127.589,231.100 127.695,224.167 127.740 L 214.090 127.805 214.090 133.042 L 214.090 138.279 225.140 138.344 L 236.191 138.409 244.181 133.743 C 249.954 130.372,252.232 128.914,252.394 128.488 C 252.759 127.527,252.680 113.643,252.307 113.152 C 252.135 112.926,248.478 110.661,244.179 108.117 L 236.364 103.491 225.281 103.491 C 216.557 103.491,214.173 103.559,214.077 103.808 M277.224 103.658 C 277.132 103.749,277.057 117.385,277.057 133.960 L 277.057 164.096 285.723 164.031 L 294.389 163.965 294.453 140.337 L 294.516 116.708 304.962 116.708 C 314.257 116.708,315.425 116.665,315.559 116.314 C 315.932 115.344,315.722 103.979,315.329 103.828 C 315.119 103.747,310.478 104.929,305.016 106.454 C 299.553 107.979,294.956 109.227,294.799 109.227 C 294.604 109.227,294.514 108.443,294.514 106.754 C 294.514 105.393,294.446 104.103,294.362 103.886 C 294.205 103.475,277.627 103.254,277.224 103.658 M347.887 107.255 C 343.159 109.300,339.175 110.973,339.034 110.973 C 338.893 110.973,334.910 109.345,330.183 107.357 C 325.456 105.368,321.444 103.741,321.268 103.741 C 321.009 103.741,320.948 109.514,320.948 133.918 L 320.948 164.096 329.988 164.031 L 339.027 163.965 339.152 140.399 L 339.277 116.833 350.062 116.768 L 360.848 116.703 360.848 140.002 C 360.848 152.816,360.916 163.478,360.999 163.695 C 361.133 164.044,362.137 164.090,369.729 164.090 L 378.307 164.090 378.243 138.508 L 378.180 112.927 370.363 108.209 L 362.546 103.491 359.515 103.515 L 356.484 103.538 347.887 107.255 M101.870 109.975 L 101.870 116.085 91.584 116.150 L 81.297 116.215 81.297 122.070 L 81.297 127.925 91.584 127.990 L 101.870 128.055 101.870 133.042 L 101.870 138.030 91.579 138.095 L 81.288 138.160 81.355 143.955 L 81.421 149.751 91.708 149.816 L 101.995 149.881 101.995 156.861 L 101.995 163.840 91.159 163.840 L 80.322 163.840 72.767 159.437 C 68.612 157.016,65.016 154.866,64.776 154.661 C 64.122 154.101,64.097 113.729,64.750 113.185 C 64.976 112.997,68.595 110.799,72.792 108.300 L 80.424 103.758 91.147 103.811 L 101.870 103.865 101.870 109.975 M138.811 108.447 L 146.758 113.154 146.758 120.974 L 146.758 128.794 138.903 133.412 L 131.047 138.030 120.200 138.030 L 109.352 138.030 109.352 133.042 L 109.352 128.055 119.576 127.930 L 129.800 127.805 129.800 122.070 L 129.800 116.334 119.576 116.209 L 109.352 116.085 109.285 110.230 C 109.248 107.009,109.272 104.232,109.339 104.058 C 109.435 103.808,111.738 103.741,120.162 103.741 L 130.863 103.741 138.811 108.447 M207.107 109.975 L 207.107 116.085 196.758 116.209 L 186.409 116.334 186.409 122.070 L 186.409 127.805 196.620 127.871 C 204.409 127.920,206.878 128.009,207.028 128.245 C 207.136 128.415,207.224 130.574,207.224 133.042 C 207.224 135.511,207.136 137.670,207.028 137.840 C 206.878 138.076,204.409 138.164,196.620 138.214 L 186.409 138.279 186.342 143.953 C 186.305 147.073,186.305 149.651,186.342 149.681 C 186.379 149.712,191.066 149.796,196.758 149.868 L 207.107 150.000 207.107 156.858 L 207.107 163.716 196.286 163.781 L 185.464 163.846 177.520 159.202 L 169.576 154.558 169.576 133.916 L 169.576 113.274 173.130 111.160 C 175.084 109.997,178.694 107.850,181.152 106.390 L 185.620 103.735 196.364 103.800 L 207.107 103.865 207.107 109.975 M244.065 108.509 L 252.127 113.277 252.061 121.002 L 251.995 128.728 247.506 131.358 C 245.037 132.805,241.384 134.927,239.388 136.074 L 235.758 138.160 225.173 138.095 L 214.589 138.030 214.589 133.042 L 214.589 128.055 224.813 127.930 L 235.037 127.805 235.037 122.070 L 235.037 116.334 224.751 116.269 L 214.464 116.204 214.464 109.972 L 214.464 103.741 225.234 103.741 L 236.004 103.741 244.065 108.509 M294.015 106.741 C 294.015 110.151,293.724 110.032,298.661 108.639 C 300.838 108.025,305.282 106.780,308.538 105.874 C 311.794 104.968,314.628 104.161,314.835 104.081 C 315.165 103.955,315.212 104.700,315.212 110.073 L 315.212 116.209 304.893 116.209 C 296.549 116.209,294.521 116.274,294.296 116.545 C 294.096 116.786,294.000 123.500,293.954 140.298 L 293.890 163.716 285.661 163.716 L 277.431 163.716 277.368 133.853 L 277.305 103.990 285.660 103.990 L 294.015 103.990 294.015 106.741 M370.078 108.485 C 374.163 110.957,377.630 113.130,377.781 113.312 C 377.980 113.552,378.039 120.663,377.994 138.680 L 377.930 163.716 369.701 163.716 L 361.471 163.716 361.408 140.298 C 361.362 123.392,361.266 116.787,361.063 116.543 C 360.833 116.265,358.819 116.216,349.905 116.269 L 339.027 116.334 338.900 140.025 C 338.829 153.055,338.745 163.744,338.713 163.778 C 338.395 164.113,321.480 163.789,321.348 163.446 C 321.022 162.595,321.180 104.239,321.509 104.241 C 321.680 104.241,324.626 105.426,328.055 106.874 C 331.484 108.321,335.369 109.950,336.690 110.494 L 339.090 111.483 347.662 107.766 L 356.234 104.048 359.443 104.019 L 362.651 103.990 370.078 108.485 M129.299 145.200 C 129.238 145.371,129.157 146.353,129.120 147.382 L 129.052 149.252 119.077 149.384 C 113.591 149.456,109.072 149.540,109.036 149.571 C 109.000 149.601,109.000 152.908,109.036 156.920 L 109.102 164.214 120.038 164.279 L 130.974 164.344 138.741 159.817 C 143.013 157.326,146.705 155.120,146.945 154.913 C 147.574 154.370,147.613 145.279,146.987 145.039 C 146.153 144.719,129.417 144.871,129.299 145.200 M234.464 145.187 C 234.282 145.369,234.165 146.251,234.165 147.431 L 234.165 149.377 224.487 149.377 C 217.138 149.377,214.706 149.452,214.383 149.688 C 213.996 149.972,213.963 150.647,214.023 157.107 L 214.090 164.214 225.075 164.279 L 236.061 164.344 244.136 159.641 C 248.797 156.927,252.290 154.738,252.397 154.464 C 252.687 153.727,252.655 145.920,252.360 145.370 C 252.042 144.776,235.049 144.602,234.464 145.187 M146.826 150.030 L 146.758 154.673 138.903 159.256 L 131.047 163.839 120.137 163.840 L 109.227 163.840 109.227 156.861 L 109.227 149.881 119.264 149.816 L 129.302 149.751 129.374 147.569 L 129.446 145.387 138.170 145.387 L 146.894 145.387 146.826 150.030 M252.120 149.940 C 252.120 154.007,252.073 154.523,251.683 154.766 C 251.443 154.916,247.862 157.019,243.725 159.439 L 236.204 163.840 225.334 163.840 L 214.464 163.840 214.464 156.858 L 214.464 149.875 224.264 149.875 C 235.526 149.875,234.663 150.086,234.663 147.332 L 234.663 145.387 243.392 145.387 L 252.120 145.387 252.120 149.940 M66.450 176.121 C 66.384 176.293,66.359 189.844,66.395 206.234 L 66.459 236.035 127.681 236.035 L 188.903 236.035 188.966 213.404 L 189.030 190.773 152.557 190.769 C 132.497 190.767,115.946 190.677,115.777 190.570 C 115.547 190.424,115.452 188.549,115.403 183.155 L 115.337 175.935 90.953 175.872 C 71.577 175.821,66.544 175.872,66.450 176.121 M114.972 183.541 C 115.046 187.587,115.130 190.925,115.159 190.959 C 115.188 190.993,131.736 191.049,151.933 191.084 L 188.653 191.147 188.717 213.404 L 188.781 235.661 127.807 235.661 L 66.833 235.661 66.833 206.027 C 66.833 189.728,66.908 176.317,67.000 176.225 C 67.093 176.133,77.894 176.086,91.003 176.121 L 114.838 176.185 114.972 183.541 M209.537 213.403 L 209.601 236.035 271.571 236.035 L 333.541 236.035 333.541 213.466 L 333.541 190.898 271.507 190.835 L 209.474 190.772 209.537 213.403 M333.167 213.342 L 333.167 235.661 271.446 235.661 L 209.726 235.661 209.726 213.508 C 209.726 201.324,209.800 191.280,209.892 191.189 C 209.983 191.097,237.758 191.022,271.613 191.022 L 333.167 191.022 333.167 213.342 " stroke="none" fill="#9cbbc3" fill-rule="evenodd"></path></g></svg>